<svg width="76" height="76" viewBox="0 0 76 76" fill="none" xmlns="http://www.w3.org/2000/svg">
<path d="M0 37.78C0 45.2522 2.21576 52.5565 6.36708 58.7694C10.5184 64.9823 16.4188 69.8247 23.3222 72.6841C30.2256 75.5436 37.8219 76.2918 45.1505 74.834C52.4791 73.3763 59.2108 69.7781 64.4945 64.4945C69.7781 59.2108 73.3763 52.4791 74.834 45.1505C76.2918 37.8219 75.5436 30.2256 72.6841 23.3222C69.8247 16.4188 64.9823 10.5184 58.7694 6.36708C52.5565 2.21576 45.2522 0 37.78 0C27.7601 0 18.1506 3.98038 11.0655 11.0655C3.98038 18.1506 0 27.7601 0 37.78V37.78ZM62.4719 58.6939L16.8661 13.0881C23.0745 7.9203 30.9902 5.25945 39.0596 5.62777C47.1289 5.99608 54.7693 9.36695 60.4812 15.0788C66.193 20.7907 69.5639 28.431 69.9322 36.5004C70.3005 44.5698 67.6397 52.4855 62.4719 58.6939V58.6939ZM16.8391 62.4989C10.304 56.9493 6.23641 49.0346 5.52818 40.4904C4.81996 31.9462 7.52893 23.4699 13.0611 16.92L58.6399 62.4989C52.7955 67.4373 45.3911 70.1467 37.7395 70.1467C30.088 70.1467 22.6836 67.4373 16.8391 62.4989V62.4989Z" fill="#E01C1C"/>
</svg>
