<svg width="85" height="85" viewBox="0 0 85 85" fill="none" xmlns="http://www.w3.org/2000/svg">
<path d="M42.5 4.72217C35.0282 4.72217 27.7243 6.9378 21.5118 11.0889C15.2992 15.2399 10.4572 21.14 7.59785 28.043C4.73854 34.946 3.99041 42.5419 5.44807 49.87C6.90574 57.1982 10.5037 63.9296 15.787 69.2129C21.0704 74.4962 27.8017 78.0942 35.1299 79.5518C42.4581 81.0095 50.0539 80.2614 56.9569 77.4021C63.8599 74.5428 69.76 69.7007 73.911 63.4882C78.0621 57.2756 80.2777 49.9717 80.2777 42.4999C80.2777 32.4807 76.2976 22.8717 69.2129 15.787C62.1282 8.70232 52.5193 4.72217 42.5 4.72217V4.72217ZM42.5 75.5555C35.9622 75.5555 29.5712 73.6168 24.1353 69.9846C18.6993 66.3524 14.4625 61.1899 11.9606 55.1498C9.45872 49.1096 8.8041 42.4633 10.0796 36.0511C11.355 29.639 14.5033 23.749 19.1262 19.1261C23.7491 14.5032 29.639 11.355 36.0511 10.0795C42.4633 8.80409 49.1097 9.4587 55.1498 11.9606C61.1899 14.4625 66.3525 18.6993 69.9847 24.1353C73.6168 29.5712 75.5555 35.9622 75.5555 42.4999C75.5555 51.2668 72.0729 59.6746 65.8738 65.8738C59.6747 72.0729 51.2668 75.5555 42.5 75.5555Z" fill="#2FAB6D"/>
<path d="M66.111 28.5699C65.6686 28.1301 65.0702 27.8833 64.4464 27.8833C63.8227 27.8833 63.2242 28.1301 62.7819 28.5699L36.5735 54.6602L22.4068 40.4935C21.9748 40.027 21.3751 39.7512 20.7396 39.7269C20.1042 39.7025 19.4852 39.9316 19.0187 40.3636C18.5521 40.7957 18.2764 41.3954 18.252 42.0308C18.2277 42.6663 18.4567 43.2853 18.8888 43.7518L36.5735 61.3893L66.111 31.9227C66.3323 31.7032 66.508 31.442 66.6278 31.1543C66.7477 30.8666 66.8094 30.558 66.8094 30.2463C66.8094 29.9346 66.7477 29.626 66.6278 29.3383C66.508 29.0505 66.3323 28.7894 66.111 28.5699Z" fill="#2FAB6D"/>
</svg>
